<?xml version="1.0" encoding="UTF-8"?>
<svg xmlns="http://www.w3.org/2000/svg" xmlns:xlink="http://www.w3.org/1999/xlink" width="20px" height="px" viewBox="0 0 20 20" version="1.1">
<g id="surface1">
<path style=" stroke:none;fill-rule:nonzero;fill:rgb(0%,0%,0%);fill-opacity:1;" d="M 11.929688 8.125 C 12.554688 7.710938 13.023438 7.105469 13.277344 6.398438 C 13.527344 5.695312 13.546875 4.929688 13.328125 4.214844 C 13.113281 3.496094 12.671875 2.871094 12.070312 2.425781 C 11.46875 1.980469 10.742188 1.738281 9.992188 1.738281 C 9.246094 1.738281 8.515625 1.980469 7.914062 2.425781 C 7.3125 2.871094 6.871094 3.496094 6.65625 4.214844 C 6.4375 4.929688 6.457031 5.695312 6.707031 6.398438 C 6.960938 7.105469 7.429688 7.710938 8.054688 8.125 C 6.511719 8.550781 5.152344 9.46875 4.179688 10.738281 C 3.210938 12.011719 2.679688 13.5625 2.675781 15.164062 C 2.675781 15.589844 2.847656 16 3.148438 16.300781 C 3.449219 16.605469 3.859375 16.773438 4.289062 16.773438 L 8.054688 16.773438 C 8.144531 17.117188 8.320312 17.433594 8.570312 17.683594 C 8.820312 17.9375 9.128906 18.117188 9.472656 18.210938 C 9.816406 18.304688 10.175781 18.304688 10.519531 18.214844 C 10.859375 18.121094 11.171875 17.941406 11.421875 17.691406 C 11.675781 17.4375 11.855469 17.121094 11.945312 16.773438 L 15.894531 16.773438 C 16.273438 16.773438 16.636719 16.625 16.90625 16.355469 C 17.171875 16.085938 17.324219 15.722656 17.324219 15.34375 C 17.320312 13.71875 16.796875 12.140625 15.824219 10.839844 C 14.851562 9.539062 13.488281 8.589844 11.929688 8.125 Z M 7.449219 5.207031 C 7.449219 4.703125 7.601562 4.210938 7.882812 3.789062 C 8.160156 3.371094 8.558594 3.046875 9.027344 2.851562 C 9.492188 2.660156 10.003906 2.609375 10.5 2.707031 C 10.992188 2.808594 11.449219 3.050781 11.804688 3.40625 C 12.160156 3.765625 12.402344 4.21875 12.5 4.714844 C 12.597656 5.207031 12.546875 5.71875 12.355469 6.1875 C 12.164062 6.652344 11.835938 7.050781 11.417969 7.328125 C 10.996094 7.609375 10.503906 7.757812 10 7.757812 C 9.324219 7.757812 8.675781 7.488281 8.195312 7.011719 C 7.71875 6.53125 7.449219 5.882812 7.449219 5.207031 Z M 10.757812 17.027344 C 10.609375 17.175781 10.417969 17.277344 10.210938 17.320312 C 10.003906 17.363281 9.789062 17.339844 9.589844 17.257812 C 9.394531 17.175781 9.230469 17.039062 9.113281 16.863281 C 8.992188 16.6875 8.929688 16.480469 8.929688 16.269531 C 8.929688 16.058594 8.992188 15.851562 9.113281 15.671875 C 9.230469 15.496094 9.394531 15.359375 9.589844 15.277344 C 9.789062 15.199219 10.003906 15.175781 10.210938 15.21875 C 10.417969 15.257812 10.609375 15.359375 10.757812 15.507812 C 10.960938 15.710938 11.074219 15.984375 11.074219 16.269531 C 11.074219 16.554688 10.960938 16.828125 10.757812 17.027344 Z M 15.894531 15.835938 L 11.960938 15.835938 C 11.863281 15.390625 11.617188 14.988281 11.257812 14.703125 C 10.902344 14.417969 10.457031 14.257812 10 14.257812 C 9.542969 14.257812 9.097656 14.417969 8.742188 14.703125 C 8.382812 14.988281 8.136719 15.390625 8.039062 15.835938 L 4.289062 15.835938 C 4.109375 15.835938 3.9375 15.765625 3.808594 15.640625 C 3.683594 15.511719 3.613281 15.339844 3.613281 15.164062 C 3.613281 14.304688 3.785156 13.457031 4.121094 12.667969 C 4.453125 11.878906 4.945312 11.164062 5.5625 10.570312 C 6.179688 9.972656 6.90625 9.507812 7.707031 9.203125 C 8.507812 8.894531 9.363281 8.75 10.21875 8.78125 C 13.617188 8.894531 16.386719 11.835938 16.386719 15.34375 C 16.386719 15.476562 16.335938 15.601562 16.242188 15.691406 C 16.148438 15.785156 16.023438 15.835938 15.894531 15.835938 Z M 15.894531 15.835938 "/>
</g>
</svg>
