<?xml version="1.0" encoding="UTF-8"?>
<svg xmlns="http://www.w3.org/2000/svg" xmlns:xlink="http://www.w3.org/1999/xlink" width="20px" height="20px" viewBox="0 0 20 20" version="1.1">
<g id="surface1">
<path style=" stroke:none;fill-rule:evenodd;fill:rgb(7.058824%,7.45098%,7.45098%);fill-opacity:1;" d="M 20 10.003906 C 20 9.839844 19.929688 9.679688 19.816406 9.558594 L 13.628906 3.308594 C 13.386719 3.0625 12.988281 3.0625 12.746094 3.308594 C 12.5 3.554688 12.5 3.957031 12.746094 4.203125 L 17.867188 9.375 L 0.625 9.375 C 0.28125 9.375 0 9.65625 0 10.003906 C 0 10.355469 0.28125 10.636719 0.625 10.636719 L 17.867188 10.636719 L 12.746094 15.808594 C 12.5 16.054688 12.503906 16.453125 12.746094 16.703125 C 12.992188 16.949219 13.386719 16.949219 13.628906 16.703125 L 19.816406 10.453125 C 19.933594 10.332031 20 10.171875 20 10.003906 Z M 20 10.003906 "/>
</g>
</svg>
