<?xml version="1.0" encoding="UTF-8"?>
<svg xmlns="http://www.w3.org/2000/svg" xmlns:xlink="http://www.w3.org/1999/xlink" width="20px" height="20px" viewBox="0 0 20 20" version="1.1">
<g id="surface1">
<path style=" stroke:none;fill-rule:nonzero;fill:rgb(0%,0%,0%);fill-opacity:1;" d="M 18.125 9.898438 L 10.3125 2.953125 C 10.226562 2.878906 10.113281 2.835938 10 2.835938 C 9.886719 2.835938 9.773438 2.878906 9.6875 2.953125 L 1.875 9.898438 C 1.78125 9.980469 1.726562 10.097656 1.71875 10.21875 C 1.710938 10.34375 1.753906 10.464844 1.835938 10.558594 C 1.921875 10.652344 2.035156 10.707031 2.160156 10.714844 C 2.285156 10.722656 2.40625 10.679688 2.5 10.597656 L 3.949219 9.304688 L 3.949219 16.695312 C 3.949219 16.820312 4 16.941406 4.085938 17.027344 C 4.175781 17.117188 4.292969 17.164062 4.417969 17.164062 L 8.324219 17.164062 C 8.449219 17.164062 8.570312 17.117188 8.65625 17.027344 C 8.746094 16.941406 8.792969 16.820312 8.792969 16.695312 L 8.792969 12.5 C 8.792969 12.179688 8.921875 11.875 9.148438 11.648438 C 9.375 11.421875 9.679688 11.292969 10 11.292969 C 10.320312 11.292969 10.625 11.421875 10.851562 11.648438 C 11.078125 11.875 11.207031 12.179688 11.207031 12.5 L 11.207031 16.695312 C 11.207031 16.820312 11.253906 16.941406 11.34375 17.027344 C 11.429688 17.117188 11.550781 17.164062 11.675781 17.164062 L 15.582031 17.164062 C 15.707031 17.164062 15.824219 17.117188 15.914062 17.027344 C 16 16.941406 16.050781 16.820312 16.050781 16.695312 L 16.050781 9.304688 L 17.5 10.597656 C 17.585938 10.671875 17.695312 10.714844 17.8125 10.714844 C 17.90625 10.714844 18 10.6875 18.078125 10.632812 C 18.15625 10.578125 18.21875 10.503906 18.25 10.414062 C 18.285156 10.324219 18.292969 10.226562 18.269531 10.136719 C 18.246094 10.042969 18.195312 9.960938 18.125 9.898438 Z M 15.113281 16.226562 L 12.144531 16.226562 L 12.144531 12.5 C 12.144531 12.21875 12.089844 11.941406 11.980469 11.679688 C 11.871094 11.417969 11.714844 11.183594 11.515625 10.984375 C 11.316406 10.785156 11.082031 10.628906 10.820312 10.519531 C 10.558594 10.410156 10.28125 10.355469 10 10.355469 C 9.71875 10.355469 9.441406 10.410156 9.179688 10.519531 C 8.917969 10.628906 8.683594 10.785156 8.484375 10.984375 C 8.285156 11.183594 8.128906 11.417969 8.019531 11.679688 C 7.910156 11.941406 7.855469 12.21875 7.855469 12.5 L 7.855469 16.226562 L 4.886719 16.226562 L 4.886719 8.476562 L 10 3.929688 L 15.113281 8.476562 Z M 15.113281 16.226562 "/>
</g>
</svg>
