<?xml version="1.0" encoding="UTF-8"?>
<svg xmlns="http://www.w3.org/2000/svg" xmlns:xlink="http://www.w3.org/1999/xlink" width="20px" height="20px" viewBox="0 0 20 20" version="1.1">
<g id="surface1">
<path style=" stroke:none;fill-rule:nonzero;fill:rgb(77.647059%,31.764706%,16.862745%);fill-opacity:1;" d="M 15.832031 18.332031 L 15 18.332031 C 14.539062 18.332031 14.167969 17.960938 14.167969 17.5 L 14.167969 15.832031 C 14.167969 15.601562 14.351562 15.417969 14.582031 15.417969 L 16.25 15.417969 C 16.480469 15.417969 16.667969 15.601562 16.667969 15.832031 L 16.667969 17.5 C 16.667969 17.960938 16.292969 18.332031 15.832031 18.332031 Z M 15.832031 18.332031 "/>
<path style=" stroke:none;fill-rule:nonzero;fill:rgb(77.647059%,31.764706%,16.862745%);fill-opacity:1;" d="M 5 18.332031 L 4.167969 18.332031 C 3.707031 18.332031 3.332031 17.960938 3.332031 17.5 L 3.332031 15.832031 C 3.332031 15.601562 3.519531 15.417969 3.75 15.417969 L 5.417969 15.417969 C 5.648438 15.417969 5.832031 15.601562 5.832031 15.832031 L 5.832031 17.5 C 5.832031 17.960938 5.460938 18.332031 5 18.332031 Z M 5 18.332031 "/>
<path style=" stroke:none;fill-rule:nonzero;fill:rgb(77.647059%,31.764706%,16.862745%);fill-opacity:1;" d="M 16.25 13.75 L 3.75 13.75 C 3.519531 13.75 3.332031 13.5625 3.332031 13.332031 L 3.332031 4.582031 C 3.335938 2.972656 4.640625 1.667969 6.25 1.667969 L 13.75 1.667969 C 15.359375 1.667969 16.664062 2.972656 16.667969 4.582031 L 16.667969 13.332031 C 16.667969 13.5625 16.480469 13.75 16.25 13.75 Z M 16.25 13.75 "/>
<path style=" stroke:none;fill-rule:nonzero;fill:rgb(65.882353%,23.921569%,12.54902%);fill-opacity:1;" d="M 8.332031 5 C 8.332031 5.230469 8.148438 5.417969 7.917969 5.417969 C 7.6875 5.417969 7.5 5.230469 7.5 5 C 7.5 4.769531 7.6875 4.582031 7.917969 4.582031 C 8.148438 4.582031 8.332031 4.769531 8.332031 5 Z M 8.332031 5 "/>
<path style=" stroke:none;fill-rule:nonzero;fill:rgb(65.882353%,23.921569%,12.54902%);fill-opacity:1;" d="M 12.5 5 C 12.5 5.230469 12.3125 5.417969 12.082031 5.417969 C 11.851562 5.417969 11.667969 5.230469 11.667969 5 C 11.667969 4.769531 11.851562 4.582031 12.082031 4.582031 C 12.3125 4.582031 12.5 4.769531 12.5 5 Z M 12.5 5 "/>
<path style=" stroke:none;fill-rule:nonzero;fill:rgb(65.882353%,23.921569%,12.54902%);fill-opacity:1;" d="M 8.332031 7.5 C 8.332031 7.730469 8.148438 7.917969 7.917969 7.917969 C 7.6875 7.917969 7.5 7.730469 7.5 7.5 C 7.5 7.269531 7.6875 7.082031 7.917969 7.082031 C 8.148438 7.082031 8.332031 7.269531 8.332031 7.5 Z M 8.332031 7.5 "/>
<path style=" stroke:none;fill-rule:nonzero;fill:rgb(65.882353%,23.921569%,12.54902%);fill-opacity:1;" d="M 12.5 7.5 C 12.5 7.730469 12.3125 7.917969 12.082031 7.917969 C 11.851562 7.917969 11.667969 7.730469 11.667969 7.5 C 11.667969 7.269531 11.851562 7.082031 12.082031 7.082031 C 12.3125 7.082031 12.5 7.269531 12.5 7.5 Z M 12.5 7.5 "/>
<path style=" stroke:none;fill-rule:nonzero;fill:rgb(90.196078%,44.705882%,26.666667%);fill-opacity:1;" d="M 15.832031 16.667969 L 4.167969 16.667969 C 3.015625 16.664062 2.085938 15.734375 2.082031 14.582031 L 2.082031 10.726562 C 1.261719 10.046875 1.015625 8.894531 1.488281 7.941406 C 1.960938 6.988281 3.027344 6.484375 4.0625 6.726562 C 5.101562 6.96875 5.832031 7.894531 5.832031 8.957031 L 5.832031 11.585938 C 7.210938 11.367188 8.605469 11.253906 10 11.25 C 11.394531 11.253906 12.789062 11.367188 14.167969 11.585938 L 14.167969 8.957031 C 14.167969 7.894531 14.898438 6.96875 15.9375 6.726562 C 16.972656 6.484375 18.039062 6.988281 18.511719 7.941406 C 18.984375 8.894531 18.738281 10.046875 17.917969 10.726562 L 17.917969 14.582031 C 17.914062 15.734375 16.984375 16.664062 15.832031 16.667969 Z M 15.832031 16.667969 "/>
</g>
</svg>
