<?xml version="1.0" encoding="UTF-8"?>
<svg xmlns="http://www.w3.org/2000/svg" xmlns:xlink="http://www.w3.org/1999/xlink" width="20px" height="20px" viewBox="0 0 20 20" version="1.1">
<g id="surface1">
<path style=" stroke:none;fill-rule:nonzero;fill:rgb(60.784314%,34.901961%,3.137255%);fill-opacity:1;" d="M 16.875 16.5625 L 17.8125 16.5625 L 17.8125 17.5 L 16.875 17.5 Z M 16.875 16.5625 "/>
<path style=" stroke:none;fill-rule:nonzero;fill:rgb(60.784314%,34.901961%,3.137255%);fill-opacity:1;" d="M 2.5 16.5625 L 3.4375 16.5625 L 3.4375 17.5 L 2.5 17.5 Z M 2.5 16.5625 "/>
<path style=" stroke:none;fill-rule:nonzero;fill:rgb(97.254902%,67.45098%,27.843137%);fill-opacity:1;" d="M 2.1875 10.625 L 2.1875 5.195312 C 2.1875 3.59375 3.644531 3.125 5.4375 3.125 L 14.5625 3.125 C 16.355469 3.125 17.8125 3.59375 17.8125 5.195312 L 17.8125 10.625 Z M 2.1875 10.625 "/>
<path style=" stroke:none;fill-rule:nonzero;fill:rgb(98.431373%,80.392157%,56.862745%);fill-opacity:1;" d="M 6.375 3.125 L 5.4375 3.125 C 3.644531 3.125 2.1875 3.59375 2.1875 5.195312 L 2.1875 10.625 L 3.125 10.625 L 3.125 5.195312 C 3.125 3.59375 4.582031 3.125 6.375 3.125 Z M 6.375 3.125 "/>
<path style=" stroke:none;fill-rule:nonzero;fill:rgb(96.862745%,78.823529%,41.960784%);fill-opacity:1;" d="M 4.375 10.625 L 15.625 10.625 L 15.625 14.0625 L 4.375 14.0625 Z M 4.375 10.625 "/>
<path style=" stroke:none;fill-rule:nonzero;fill:rgb(98.039216%,87.45098%,65.098039%);fill-opacity:1;" d="M 5.3125 12.242188 L 5.3125 10.625 L 4.375 10.625 L 4.375 14.0625 L 15.625 14.0625 L 15.625 13.125 L 6.195312 13.125 C 5.707031 13.125 5.3125 12.730469 5.3125 12.242188 Z M 5.3125 12.242188 "/>
<path style=" stroke:none;fill-rule:nonzero;fill:rgb(88.235294%,53.333333%,20.784314%);fill-opacity:1;" d="M 15.625 14.0625 L 15.625 9.796875 C 15.664062 9.011719 16.328125 8.402344 17.113281 8.4375 L 18.199219 8.4375 C 18.984375 8.402344 19.648438 9.011719 19.6875 9.796875 L 19.6875 15.265625 C 19.65625 15.964844 19.066406 16.511719 18.363281 16.484375 C 14.824219 16.507812 5.164062 16.5625 1.625 16.519531 C 0.929688 16.539062 0.34375 15.996094 0.3125 15.300781 L 0.3125 9.796875 C 0.347656 9.015625 1.007812 8.40625 1.789062 8.4375 L 2.898438 8.4375 C 3.679688 8.40625 4.339844 9.015625 4.375 9.796875 L 4.375 14.0625 Z M 15.625 14.0625 "/>
<path style=" stroke:none;fill-rule:nonzero;fill:rgb(92.941176%,72.156863%,52.54902%);fill-opacity:1;" d="M 16.5625 9.796875 C 16.601562 9.011719 17.265625 8.402344 18.050781 8.4375 L 17.113281 8.4375 C 16.328125 8.402344 15.664062 9.011719 15.625 9.796875 L 15.625 14.0625 L 16.5625 14.0625 Z M 16.5625 9.796875 "/>
<path style=" stroke:none;fill-rule:nonzero;fill:rgb(92.941176%,72.156863%,52.54902%);fill-opacity:1;" d="M 19.300781 15.859375 C 15.761719 15.882812 6.101562 15.941406 2.5625 15.894531 C 1.867188 15.917969 1.28125 15.375 1.25 14.675781 L 1.25 9.171875 C 1.253906 8.921875 1.328125 8.679688 1.46875 8.472656 C 0.816406 8.582031 0.332031 9.136719 0.3125 9.796875 L 0.3125 15.300781 C 0.34375 16 0.929688 16.542969 1.625 16.519531 C 5.164062 16.566406 14.824219 16.507812 18.363281 16.484375 C 18.835938 16.488281 19.277344 16.246094 19.523438 15.839844 C 19.453125 15.851562 19.378906 15.859375 19.300781 15.859375 Z M 19.300781 15.859375 "/>
<path style=" stroke:none;fill-rule:nonzero;fill:rgb(0%,0%,0%);fill-opacity:1;" d="M 18.125 7.5 L 17.5 7.5 L 17.5 5.195312 C 17.5 4.761719 17.5 3.4375 14.5625 3.4375 L 5.4375 3.4375 C 2.5 3.4375 2.5 4.761719 2.5 5.195312 L 2.5 7.5 L 1.875 7.5 L 1.875 5.195312 C 1.875 4.109375 2.492188 2.8125 5.4375 2.8125 L 14.5625 2.8125 C 16.1875 2.8125 18.125 3.226562 18.125 5.195312 Z M 18.125 7.5 "/>
<path style=" stroke:none;fill-rule:nonzero;fill:rgb(0%,0%,0%);fill-opacity:1;" d="M 5.3125 10.3125 L 14.6875 10.3125 L 14.6875 10.9375 L 5.3125 10.9375 Z M 5.3125 10.3125 "/>
<path style=" stroke:none;fill-rule:nonzero;fill:rgb(0%,0%,0%);fill-opacity:1;" d="M 18.199219 8.125 L 17.113281 8.125 C 16.15625 8.089844 15.351562 8.839844 15.3125 9.796875 L 15.3125 13.75 L 7.8125 13.75 L 7.8125 14.375 L 17.1875 14.375 L 17.1875 13.75 L 15.9375 13.75 L 15.9375 9.796875 C 15.976562 9.183594 16.5 8.71875 17.113281 8.75 L 18.199219 8.75 C 18.8125 8.71875 19.335938 9.183594 19.375 9.796875 L 19.375 15.265625 C 19.339844 15.792969 18.890625 16.195312 18.363281 16.171875 C 15.347656 16.191406 5.234375 16.253906 1.628906 16.207031 C 1.105469 16.230469 0.660156 15.828125 0.625 15.300781 L 0.625 9.796875 C 0.660156 9.1875 1.179688 8.71875 1.789062 8.75 L 2.898438 8.75 C 3.507812 8.71875 4.027344 9.1875 4.0625 9.796875 L 4.0625 13.75 L 2.8125 13.75 L 2.8125 14.375 L 5.9375 14.375 L 5.9375 13.75 L 4.6875 13.75 L 4.6875 9.796875 C 4.652344 8.84375 3.851562 8.09375 2.898438 8.125 L 1.789062 8.125 C 0.835938 8.09375 0.0351562 8.84375 0 9.796875 L 0 15.300781 C 0.0351562 16.167969 0.753906 16.851562 1.621094 16.832031 C 1.792969 16.835938 1.988281 16.835938 2.1875 16.839844 L 2.1875 17.5 C 2.1875 17.671875 2.328125 17.8125 2.5 17.8125 L 3.4375 17.8125 C 3.609375 17.8125 3.75 17.671875 3.75 17.5 L 3.75 16.847656 C 4.300781 16.847656 4.894531 16.847656 5.523438 16.847656 C 9.101562 16.847656 13.707031 16.824219 16.5625 16.808594 L 16.5625 17.5 C 16.5625 17.671875 16.703125 17.8125 16.875 17.8125 L 17.8125 17.8125 C 17.984375 17.8125 18.125 17.671875 18.125 17.5 L 18.125 16.800781 L 18.367188 16.800781 C 19.238281 16.820312 19.964844 16.136719 20 15.265625 L 20 9.796875 C 19.960938 8.839844 19.15625 8.089844 18.199219 8.125 Z M 3.125 17.1875 L 2.8125 17.1875 L 2.8125 16.84375 L 3.125 16.84375 Z M 17.5 17.1875 L 17.1875 17.1875 L 17.1875 16.804688 L 17.5 16.804688 Z M 17.5 17.1875 "/>
<path style=" stroke:none;fill-rule:nonzero;fill:rgb(0%,0%,0%);fill-opacity:1;" d="M 6.5625 13.75 L 7.1875 13.75 L 7.1875 14.375 L 6.5625 14.375 Z M 6.5625 13.75 "/>
</g>
</svg>
