<svg width="135" height="113" viewBox="0 0 135 113" fill="none" xmlns="http://www.w3.org/2000/svg">
<g clip-path="url(#clip0)">
<path d="M127.533 36.1482C127.533 40.8514 126.423 44.7229 124.497 48.0394C123.862 49.1317 123.14 50.1714 122.34 51.1485C115.261 59.8369 102.1 64.5923 90.2047 72.2951C55.0924 95.0316 51.2891 58.5986 52.8749 36.1482C53.5146 27.0894 57.0301 18.7916 62.6152 12.4381C63.7881 11.1019 65.0552 9.85186 66.4065 8.69771C72.7472 3.27903 80.9389 0 90.2047 0C106.102 0 119.677 9.62178 125.06 23.1805C126.696 27.3066 127.536 31.7074 127.533 36.1482Z" fill="#CC0000"/>
<path d="M82.9982 40.8922C85.7171 39.3183 86.3729 36.1764 84.552 33.0144C82.7311 29.8523 79.6892 28.8508 76.9703 30.4246C74.2514 31.9984 73.6384 35.1518 75.4436 38.2866C77.2489 41.4215 80.2793 42.466 82.9982 40.8922ZM86.4916 50.6097L89.1561 49.0674L91.1641 22.463L88.4996 24.0054L86.4916 50.6097ZM81.8993 38.984C80.4855 39.8024 78.8547 39.1108 77.646 37.0118C76.4372 34.9129 76.6553 33.1511 78.0691 32.3327C79.5373 31.4829 81.0981 32.1787 82.3225 34.3049C83.5469 36.4311 83.3676 38.1341 81.8993 38.984ZM100.658 42.6639C103.377 41.0901 104.017 37.9209 102.212 34.7861C100.407 31.6513 97.3493 30.6225 94.6303 32.1963C91.9114 33.7702 91.2985 36.9236 93.1037 40.0584C94.9089 43.1932 97.9393 44.2377 100.658 42.6639ZM99.5594 40.7558C98.1184 41.5899 96.5304 40.9098 95.306 38.7836C94.0816 36.6574 94.2881 34.9386 95.7292 34.1045C97.1702 33.2704 98.7738 33.9777 99.9826 36.0766C101.191 38.1756 101 39.9216 99.5594 40.7558Z" fill="white"/>
<path d="M63.9376 81.5013C63.9376 81.5013 72.1261 81.8437 72.1261 83.898C72.1261 85.9522 62.9141 83.898 62.9141 83.898L63.9376 81.5013Z" fill="#A0616A"/>
<g filter="url(#filter0_d)">
<path d="M51.6551 113L36.3017 111.973L35.6193 103.756L32.2075 110.946L17.1953 108.891C17.5365 95.8812 22.9955 83.2132 23.3367 81.5014C23.6778 79.7895 24.4933 72.716 24.4933 72.716C25.9843 69.5422 33.7974 69.2443 39.9217 69.5319C42.4601 69.6483 44.712 69.8674 46.1006 70.0249C47.0183 70.1276 47.5608 70.2029 47.5608 70.2029C50.0071 72.7331 51.5834 76.1808 52.5524 80.0326C56.0461 93.9091 51.6551 113 51.6551 113Z" fill="#3A3A38"/>
</g>
<path d="M34.5951 33.5687C39.3059 33.5687 43.1247 29.7365 43.1247 25.0092C43.1247 20.282 39.3059 16.4498 34.5951 16.4498C29.8843 16.4498 26.0654 20.282 26.0654 25.0092C26.0654 29.7365 29.8843 33.5687 34.5951 33.5687Z" fill="#FBBEBE"/>
<path d="M28.7951 27.0635C28.7951 27.0635 26.4068 37.6772 22.6538 40.7586C18.9007 43.84 37.3248 40.7586 37.3248 40.7586C37.3248 40.7586 33.2305 33.9111 36.3012 30.8297C39.3719 27.7483 28.7951 27.0635 28.7951 27.0635Z" fill="#E7AEAE"/>
<path d="M46.1951 70.8876L40.5348 71.5176L24.7003 73.2843C24.7003 73.2843 24.6253 73.0823 24.4922 72.7159C23.3424 69.5695 17.805 54.2584 17.1943 49.6603C16.5119 44.5247 23.6768 38.3619 23.6768 38.3619C23.6768 38.3619 30.5005 36.9924 32.5476 36.9924C34.5947 36.9924 42.7832 40.0738 42.7832 40.0738L45.8368 67.6385L46.0995 70.0248L46.1951 70.8876Z" fill="#DFDDD8"/>
<path opacity="0.15" d="M52.5522 80.0325L41.0781 73.2843C41.0781 73.2843 40.8768 72.6269 40.5356 71.5176C40.365 70.963 40.157 70.292 39.9215 69.5319C38.5977 65.2658 36.3766 58.2266 34.5956 53.0841C31.8661 45.2095 45.1724 67.1215 45.1724 67.1215L45.8377 67.6385L46.1004 70.0249C47.0181 70.1276 47.5607 70.2029 47.5607 70.2029C50.0069 72.7331 51.5833 76.1808 52.5522 80.0325Z" fill="black"/>
<path d="M37.3247 40.7586C37.3247 40.7586 33.9129 45.2094 36.6424 53.0841C39.3718 60.9588 43.1249 73.2843 43.1249 73.2843L62.9137 84.9251L65.6432 81.5014L47.2191 67.1215C47.2191 67.1215 46.5367 41.1009 43.1249 40.0738C39.713 39.0467 37.3247 40.7586 37.3247 40.7586Z" fill="#DFDDD8"/>
<path d="M20.4365 70.7165C20.4365 70.7165 25.2131 80.6454 27.2602 79.6183C29.3074 78.5912 22.1425 68.3199 22.1425 68.3199L20.4365 70.7165Z" fill="#A0616A"/>
<path d="M19.9243 43.4976L1.84145 58.5621C1.84145 58.5621 -4.98227 63.3554 7.64161 66.7791C20.2655 70.2029 21.289 72.2572 21.289 72.2572C21.289 72.2572 22.6538 67.8063 24.3597 68.491L9.68872 61.3011L21.6302 54.1112L19.9243 43.4976Z" fill="#DFDDD8"/>
<path d="M12.6568 32.0345C13.6059 31.5629 15.7016 30.611 17.4867 29.4642C17.3616 25.7335 17.8194 22.3468 19.1595 20.5517C19.9117 18.8377 21.4913 17.1218 22.7285 15.7704C25.7666 12.4519 32.4847 10.5995 33.6762 12.2576C42.6882 12.4361 43.6369 19.5248 43.6369 19.5248C43.59 22.4898 40.5191 22.5836 37.8291 22.4756C38.0699 24.4998 37.428 26.603 35.569 27.5358C32.014 29.3195 30.9475 31.6382 32.725 33.2436C34.5025 34.8489 37.7019 39.1297 33.436 40.1999C29.1701 41.2701 28.6368 43.4105 29.8811 44.3023C31.1253 45.1942 27.0371 42.697 27.0371 42.697C27.0371 42.697 26.3261 46.9779 22.5934 45.9077C22.2589 45.8117 21.9246 45.566 21.5959 45.1984C20.5878 46.31 19.6884 46.9672 19.0106 46.9708C15.1286 46.9915 15.5941 42.6768 15.5941 42.6768C15.5941 42.6768 10.9864 43.9754 12.4242 43.4532C13.8619 42.9311 13.9235 40.7257 10.1031 38.5409C6.28272 36.3561 10.5138 33.0995 12.6568 32.0345Z" fill="black"/>
</g>
<defs>
<filter id="filter0_d" x="13.1953" y="69.4468" width="44.7071" height="51.5532" filterUnits="userSpaceOnUse" color-interpolation-filters="sRGB">
<feFlood flood-opacity="0" result="BackgroundImageFix"/>
<feColorMatrix in="SourceAlpha" type="matrix" values="0 0 0 0 0 0 0 0 0 0 0 0 0 0 0 0 0 0 127 0"/>
<feOffset dy="4"/>
<feGaussianBlur stdDeviation="2"/>
<feColorMatrix type="matrix" values="0 0 0 0 0 0 0 0 0 0 0 0 0 0 0 0 0 0 0.25 0"/>
<feBlend mode="normal" in2="BackgroundImageFix" result="effect1_dropShadow"/>
<feBlend mode="normal" in="SourceGraphic" in2="effect1_dropShadow" result="shape"/>
</filter>
<clipPath id="clip0">
<rect width="135" height="113" fill="white"/>
</clipPath>
</defs>
</svg>
