<svg width="355" height="178" viewBox="0 0 355 178" fill="none" xmlns="http://www.w3.org/2000/svg">
  <rect x="43.178" y="101.761" width="7" height="12" fill="white" stroke="black" stroke-width="2" />
  <rect x="113.178" y="101.761" width="7" height="12" fill="white" stroke="black" stroke-width="2" />
  <path
    d="M29 135L34 137.887L34 132.113L29 135ZM133 135L128 132.113L128 137.887L133 135ZM33.5 135.5L128.5 135.5L128.5 134.5L33.5 134.5L33.5 135.5Z"
    fill="black" />
  <path
    d="M221 135L226 137.887V132.113L221 135ZM326 135L321 132.113V137.887L326 135ZM225.5 135.5H321.5V134.5H225.5V135.5Z"
    fill="black" />
  <path
    d="M154 20L151.113 25L156.887 25L154 20ZM154 115L156.887 110L151.113 110L154 115ZM153.5 24.5L153.5 110.5L154.5 110.5L154.5 24.5L153.5 24.5Z"
    fill="black" />
  <path
    d="M44.4755 28.7528C43.8717 24.5351 47.1442 20.7607 51.4049 20.7607H111.951C116.212 20.7607 119.484 24.5351 118.88 28.7528L111.435 80.7607H51.9214L44.4755 28.7528Z"
    fill="white" stroke="black" stroke-width="2" />
  <mask id="path-7-inside-1_20925_5990" fill="white">
    <path fill-rule="evenodd" clip-rule="evenodd"
      d="M29.2746 54.7714C28.131 50.5037 30.6637 46.117 34.9314 44.9735L36.6286 44.5187C40.8963 43.3752 45.283 45.9078 46.4265 50.1756L54.9298 81.9104H107.494L115.997 50.1757C117.14 45.9079 121.527 43.3753 125.795 44.5188L127.492 44.9736C131.76 46.1171 134.292 50.5038 133.149 54.7715L120.721 101.153V104.107H119.93L119.823 104.503L118.343 104.107H44.0797L42.6001 104.503L29.2746 54.7714Z" />
  </mask>
  <path fill-rule="evenodd" clip-rule="evenodd"
    d="M29.2746 54.7714C28.131 50.5037 30.6637 46.117 34.9314 44.9735L36.6286 44.5187C40.8963 43.3752 45.283 45.9078 46.4265 50.1756L54.9298 81.9104H107.494L115.997 50.1757C117.14 45.9079 121.527 43.3753 125.795 44.5188L127.492 44.9736C131.76 46.1171 134.292 50.5038 133.149 54.7715L120.721 101.153V104.107H119.93L119.823 104.503L118.343 104.107H44.0797L42.6001 104.503L29.2746 54.7714Z"
    fill="white" />
  <path
    d="M34.9314 44.9735L34.4138 43.0416V43.0416L34.9314 44.9735ZM29.2746 54.7714L27.3427 55.2891L29.2746 54.7714ZM36.6286 44.5187L37.1462 46.4506L36.6286 44.5187ZM46.4265 50.1756L44.4947 50.6932L46.4265 50.1756ZM54.9298 81.9104L52.998 82.428L53.3952 83.9104H54.9298V81.9104ZM107.494 81.9104V83.9104H109.028L109.425 82.428L107.494 81.9104ZM115.997 50.1757L117.929 50.6933V50.6933L115.997 50.1757ZM125.795 44.5188L126.313 42.587L126.313 42.587L125.795 44.5188ZM127.492 44.9736L126.974 46.9054V46.9054L127.492 44.9736ZM133.149 54.7715L131.217 54.2539V54.2539L133.149 54.7715ZM120.721 101.153L118.789 100.635L118.721 100.889V101.153H120.721ZM120.721 104.107V106.107H122.721V104.107H120.721ZM119.93 104.107V102.107H118.395L117.998 103.589L119.93 104.107ZM119.823 104.503L119.306 106.435L121.238 106.953L121.755 105.021L119.823 104.503ZM118.343 104.107L118.861 102.175L118.607 102.107H118.343V104.107ZM44.0797 104.107V102.107H43.8164L43.562 102.175L44.0797 104.107ZM42.6001 104.503L40.6683 105.021L41.1859 106.953L43.1178 106.435L42.6001 104.503ZM34.4138 43.0416C29.0791 44.471 25.9133 49.9544 27.3427 55.2891L31.2064 54.2538C30.3488 51.053 32.2483 47.763 35.4491 46.9053L34.4138 43.0416ZM36.1109 42.5869L34.4138 43.0416L35.4491 46.9053L37.1462 46.4506L36.1109 42.5869ZM48.3584 49.6579C46.929 44.3233 41.4456 41.1574 36.1109 42.5869L37.1462 46.4506C40.347 45.5929 43.637 47.4924 44.4947 50.6932L48.3584 49.6579ZM56.8617 81.3927L48.3584 49.6579L44.4947 50.6932L52.998 82.428L56.8617 81.3927ZM107.494 79.9104H54.9298V83.9104H107.494V79.9104ZM109.425 82.428L117.929 50.6933L114.065 49.658L105.562 81.3927L109.425 82.428ZM117.929 50.6933C118.786 47.4925 122.076 45.593 125.277 46.4507L126.313 42.587C120.978 41.1576 115.494 44.3234 114.065 49.658L117.929 50.6933ZM125.277 46.4507L126.974 46.9054L128.01 43.0417L126.313 42.587L125.277 46.4507ZM126.974 46.9054C130.175 47.7631 132.075 51.0531 131.217 54.2539L135.081 55.2892C136.51 49.9545 133.344 44.4711 128.01 43.0417L126.974 46.9054ZM131.217 54.2539L118.789 100.635L122.653 101.67L135.081 55.2892L131.217 54.2539ZM122.721 104.107V101.153H118.721V104.107H122.721ZM119.93 106.107H120.721V102.107H119.93V106.107ZM117.998 103.589L117.891 103.986L121.755 105.021L121.861 104.624L117.998 103.589ZM120.341 102.571L118.861 102.175L117.826 106.038L119.306 106.435L120.341 102.571ZM44.0797 106.107H118.343V102.107H44.0797V106.107ZM43.1178 106.435L44.5973 106.038L43.562 102.175L42.0825 102.571L43.1178 106.435ZM27.3427 55.2891L40.6683 105.021L44.532 103.985L31.2064 54.2538L27.3427 55.2891Z"
    fill="black" mask="url(#path-7-inside-1_20925_5990)" />
  <path
    d="M53.1492 78.5644C51.9642 74.1205 55.3137 69.7607 59.9129 69.7607H102.702C107.403 69.7607 110.768 74.3022 109.399 78.7993L108.193 82.7607H54.2683L53.1492 78.5644Z"
    fill="white" stroke="black" stroke-width="2" />
  <path
    d="M242.958 52.6823C242.401 48.4871 245.665 44.7607 249.897 44.7607H316.46C320.744 44.7607 324.023 48.5744 323.381 52.8101L318.84 82.7607H246.953L242.958 52.6823Z"
    fill="white" stroke="black" stroke-width="2" />
  <rect x="241.942" y="101.761" width="7" height="12" fill="white" stroke="black" stroke-width="2" />
  <rect x="311.764" y="101.761" width="7" height="12" fill="white" stroke="black" stroke-width="2" />
  <mask id="path-13-inside-2_20925_5990" fill="white">
    <path fill-rule="evenodd" clip-rule="evenodd"
      d="M226.931 19.7293C222.664 20.8729 220.131 25.2596 221.275 29.5273L241.364 104.503L244.134 103.761H319.764V81.7607H253.654L238.427 24.9314C237.283 20.6637 232.896 18.131 228.629 19.2746L226.931 19.7293Z" />
  </mask>
  <path fill-rule="evenodd" clip-rule="evenodd"
    d="M226.931 19.7293C222.664 20.8729 220.131 25.2596 221.275 29.5273L241.364 104.503L244.134 103.761H319.764V81.7607H253.654L238.427 24.9314C237.283 20.6637 232.896 18.131 228.629 19.2746L226.931 19.7293Z"
    fill="white" />
  <path
    d="M221.275 29.5273L219.343 30.0449L221.275 29.5273ZM226.931 19.7293L227.449 21.6612L226.931 19.7293ZM241.364 104.503L239.432 105.021L239.95 106.952L241.882 106.435L241.364 104.503ZM244.134 103.761V101.761H243.871L243.616 101.829L244.134 103.761ZM319.764 103.761V105.761H321.764V103.761H319.764ZM319.764 81.7607H321.764V79.7607H319.764V81.7607ZM253.654 81.7607L251.722 82.2784L252.119 83.7607H253.654V81.7607ZM238.427 24.9314L240.358 24.4138V24.4138L238.427 24.9314ZM228.629 19.2746L228.111 17.3427L228.111 17.3427L228.629 19.2746ZM223.206 29.0097C222.349 25.8089 224.248 22.5188 227.449 21.6612L226.414 17.7975C221.079 19.2269 217.913 24.7103 219.343 30.0449L223.206 29.0097ZM243.296 103.985L223.206 29.0097L219.343 30.0449L239.432 105.021L243.296 103.985ZM243.616 101.829L240.847 102.571L241.882 106.435L244.652 105.693L243.616 101.829ZM319.764 101.761H244.134V105.761H319.764V101.761ZM317.764 81.7607V103.761H321.764V81.7607H317.764ZM253.654 83.7607H319.764V79.7607H253.654V83.7607ZM236.495 25.4491L251.722 82.2784L255.586 81.2431L240.358 24.4138L236.495 25.4491ZM229.146 21.2064C232.347 20.3488 235.637 22.2483 236.495 25.4491L240.358 24.4138C238.929 19.0791 233.446 15.9133 228.111 17.3427L229.146 21.2064ZM227.449 21.6612L229.146 21.2064L228.111 17.3427L226.414 17.7975L227.449 21.6612Z"
    fill="black" mask="url(#path-13-inside-2_20925_5990)" />
</svg>