<svg width="177" height="108" viewBox="0 0 177 108" fill="none" xmlns="http://www.w3.org/2000/svg">
<g clip-path="url(#clip0)">
<path d="M58.2288 43.3847C59.9187 43.3847 61.2886 42.016 61.2886 40.3275C61.2886 38.639 59.9187 37.2703 58.2288 37.2703C56.5389 37.2703 55.1689 38.639 55.1689 40.3275C55.1689 42.016 56.5389 43.3847 58.2288 43.3847Z" fill="#F2F2F2"/>
<path d="M170.01 95.1071H163.005V10.3276H160.271V95.1071H153.265C152.435 95.1071 151.613 95.2701 150.846 95.5866C150.079 95.9032 149.382 96.3671 148.795 96.952C148.208 97.5369 147.742 98.2313 147.425 98.9955C147.107 99.7598 146.943 100.579 146.943 101.406V101.406H176.332V101.406C176.332 100.579 176.169 99.7597 175.851 98.9955C175.533 98.2313 175.067 97.5369 174.48 96.952C173.893 96.3671 173.196 95.9032 172.429 95.5866C171.662 95.2701 170.84 95.1071 170.01 95.1071Z" fill="#A2A09D"/>
<path d="M146.957 22.9255H176.317L174.522 0.566121C174.456 -0.204876 174.103 -0.923493 173.533 -1.44836C172.962 -1.97322 172.215 -2.26633 171.439 -2.27002H151.836C151.059 -2.26633 150.312 -1.97322 149.742 -1.44836C149.171 -0.923493 148.818 -0.204876 148.752 0.566121L146.957 22.9255Z" fill="#CC0000"/>
<path d="M68.7554 67.5356C68.7554 67.5356 63.9964 60.95 71.5741 53.2915L68.7554 67.5356Z" fill="#F2F2F2"/>
<path d="M65.0663 68.2948C65.0663 68.2948 61.8137 60.8505 51.3594 63.4715L65.0663 68.2948Z" fill="#F2F2F2"/>
<path d="M126.992 93.101C126.992 93.101 127.965 80.9844 144.035 79.6042L126.992 93.101Z" fill="#F2F2F2"/>
<path d="M122.054 90.3909C122.054 90.3909 125.576 78.7562 111.12 71.6083L122.054 90.3909Z" fill="#F2F2F2"/>
<path d="M22.1105 80.1231C20.5841 85.7607 15.356 89.2522 15.356 89.2522C15.356 89.2522 12.6025 83.6033 14.1289 77.9658C15.6553 72.3282 20.8835 68.8367 20.8835 68.8367C20.8835 68.8367 23.6369 74.4855 22.1105 80.1231Z" fill="#CC0000"/>
<path d="M8.22461 80.1231C9.75099 85.7607 14.9792 89.2522 14.9792 89.2522C14.9792 89.2522 17.7326 83.6033 16.2062 77.9658C14.6799 72.3282 9.45168 68.8367 9.45168 68.8367C9.45168 68.8367 6.69824 74.4855 8.22461 80.1231Z" fill="#CC0000"/>
<path d="M10.4676 78.9114C14.656 82.9852 15.1675 89.2475 15.1675 89.2475C15.1675 89.2475 8.88838 88.905 4.69998 84.8312C0.511582 80.7574 0 74.4951 0 74.4951C0 74.4951 6.27915 74.8377 10.4676 78.9114Z" fill="#3A3A38"/>
<path d="M19.8679 78.9114C15.6796 82.9852 15.168 89.2475 15.168 89.2475C15.168 89.2475 21.4471 88.905 25.6355 84.8312C29.8239 80.7574 30.3355 74.4951 30.3355 74.4951C30.3355 74.4951 24.0563 74.8377 19.8679 78.9114Z" fill="#3A3A38"/>
<path d="M177 101.366H1.54688V101.773H177V101.366Z" fill="#2F2E41"/>
<path d="M94.1542 38.7538C94.1542 38.7538 92.3332 36.9343 88.1449 37.2982C88.1449 37.2982 47.7192 33.1136 46.8087 40.5732C45.8982 48.0328 45.7161 52.3995 48.0834 54.0369C48.0834 54.0369 55.8226 61.0417 51.8164 67.2278L49.6313 70.8666L135.399 70.1388C135.399 70.1388 136.31 56.857 139.041 54.3099C141.773 51.7627 142.683 38.2989 139.041 37.935C135.399 37.5711 93.1526 35.5698 94.1542 38.7538Z" fill="#3A3A38"/>
<path d="M48.9029 53.5821C48.9029 53.5821 23.2271 59.5862 33.4246 70.8666L35.0635 72.5041L34.3351 97.6122H152.699L153.973 73.0499L155.43 70.1389C155.43 70.1389 164.502 59.2678 138.296 55.3333L133.578 67.2278L53.8195 66.6819C53.8195 66.6819 53.2733 53.2182 48.9029 53.5821Z" fill="#3A3A38"/>
<path d="M43.9855 95.9747H36.5195V101.615H43.9855V95.9747Z" fill="#3A3A38"/>
<path d="M151.423 95.9747H143.957V101.615H151.423V95.9747Z" fill="#3A3A38"/>
<path d="M92.7686 67.3187C92.7686 67.3187 74.9423 54.6737 52.7264 67.4097L46.1709 76.8707L47.4456 84.6943C47.4456 84.6943 93.5163 85.422 94.0626 80.5096C94.6089 75.5971 92.7686 67.3187 92.7686 67.3187Z" fill="#3A3A38"/>
<path d="M134.489 67.4097C134.489 67.4097 103.213 57.4029 93.8125 67.4097L94.9736 81.7831C94.9736 81.7831 140.68 85.2401 141.409 82.8748C142.137 80.5096 142.501 76.3249 142.501 76.3249L134.489 67.4097Z" fill="#3A3A38"/>
<path opacity="0.1" d="M134.488 67.4096C134.488 67.4096 103.213 57.4028 93.812 67.4096L93.8379 67.7302C93.8071 67.5815 93.7895 67.5006 93.7895 67.5006C93.7895 67.5006 74.9423 54.6737 52.7264 67.4096L46.1709 76.8707L47.4456 84.6942C47.4456 84.6942 92.0567 85.6423 94.9228 81.16L94.9731 81.7831C94.9731 81.7831 140.68 85.24 141.408 82.8748C142.136 80.5095 142.501 76.3248 142.501 76.3248L134.488 67.4096Z" fill="#6C6B6A"/>
<path d="M49.6309 42.3016C58.4814 42.1135 66.8717 40.9913 74.5783 38.4808C74.7657 47.3379 76.0402 55.6215 78.9486 63.0431C70.3327 61.4787 61.5882 63.0268 52.7265 67.4097C54.3181 59.4031 52.9421 50.9862 49.6309 42.3016Z" fill="#CC0000"/>
<path d="M140.133 43.7572C131.283 43.5691 122.892 42.4468 115.186 39.9364C114.998 48.7935 113.724 57.077 110.815 64.4986C119.431 62.9343 128.176 64.4823 137.038 68.8652C135.446 60.8587 136.822 52.4417 140.133 43.7572Z" fill="#CC0000"/>
<path d="M102.441 34.4829L102.394 34.4755C102.378 34.4729 102.362 34.4843 102.359 34.5009L102.22 35.3832C102.217 35.3998 102.228 35.4154 102.245 35.418L102.292 35.4254C102.308 35.4281 102.324 35.4167 102.327 35.4001L102.466 34.5178C102.469 34.5011 102.458 34.4855 102.441 34.4829Z" fill="#464353"/>
<path d="M22.7712 101.342H7.65708L5.028 92.3869C4.86778 91.8411 4.83705 91.2656 4.93822 90.7059C5.0394 90.1463 5.26971 89.6179 5.61088 89.1627C5.95205 88.7074 6.39469 88.3379 6.90371 88.0833C7.41272 87.8288 7.97409 87.6963 8.54329 87.6963H21.7652C22.3306 87.6963 22.8883 87.827 23.3947 88.0783C23.901 88.3296 24.3423 88.6946 24.684 89.1446C25.0257 89.5947 25.2584 90.1177 25.3641 90.6727C25.4697 91.2277 25.4454 91.7995 25.2929 92.3435L22.7712 101.342Z" fill="#3A3A38"/>
</g>
<defs>
<clipPath id="clip0">
<rect width="177" height="108" fill="white"/>
</clipPath>
</defs>
</svg>
