<?xml version="1.0" encoding="UTF-8"?>
<svg xmlns="http://www.w3.org/2000/svg" xmlns:xlink="http://www.w3.org/1999/xlink" width="208px"
  height="150px" viewBox="0 0 207 150" version="1.1">
  <g id="surface1">
    <path style=" stroke:none;fill-rule:nonzero;fill:#ffaaa6;fill-opacity:1;"
      d="M 100.175781 83.828125 L 111.675781 137.367188 C 111.875 138.300781 112.527344 139.074219 113.417969 139.417969 C 114.304688 139.761719 115.308594 139.632812 116.082031 139.074219 L 127.074219 131.167969 C 127.632812 130.765625 128.320312 130.582031 129.007812 130.648438 L 142.394531 132.035156 C 143.316406 132.132812 144.230469 131.765625 144.832031 131.054688 C 145.4375 130.34375 145.648438 129.382812 145.40625 128.480469 L 130.859375 73.847656 Z M 100.175781 83.828125 " />
    <path style=" stroke:none;fill-rule:nonzero;fill:#ffaaa6;fill-opacity:1;"
      d="M 106.433594 83.828125 L 94.933594 137.367188 C 94.734375 138.300781 94.082031 139.074219 93.191406 139.417969 C 92.304688 139.761719 91.300781 139.632812 90.527344 139.074219 L 79.535156 131.167969 C 78.976562 130.765625 78.289062 130.582031 77.601562 130.648438 L 64.214844 132.035156 C 63.292969 132.132812 62.378906 131.765625 61.777344 131.054688 C 61.171875 130.34375 60.957031 129.382812 61.203125 128.480469 L 75.75 73.847656 Z M 106.433594 83.828125 " />
    <path
      style=" stroke:none;fill-rule:nonzero;fill:rgb(64.313725%,17.254902%,11.764706%);fill-opacity:1;"
      d="M 152.375 59.433594 C 152.367188 86.515625 130.484375 108.464844 103.492188 108.460938 C 76.5 108.457031 54.621094 86.5 54.625 59.417969 C 54.628906 32.335938 76.507812 10.382812 103.5 10.382812 C 130.492188 10.382812 152.375 32.339844 152.375 59.421875 " />
    <path style=" stroke:none;fill-rule:nonzero;fill:rgb(100%,100%,100%);fill-opacity:1;"
      d="M 104.835938 34.246094 L 111.148438 47.066406 C 111.582031 47.949219 112.417969 48.5625 113.390625 48.703125 L 127.488281 50.769531 C 128.054688 50.84375 128.523438 51.238281 128.703125 51.785156 C 128.878906 52.328125 128.726562 52.921875 128.316406 53.320312 L 118.117188 63.300781 C 117.414062 63.984375 117.097656 64.972656 117.265625 65.941406 L 119.679688 80.042969 C 119.777344 80.601562 119.550781 81.171875 119.089844 81.503906 C 118.628906 81.839844 118.019531 81.878906 117.519531 81.613281 L 104.878906 75 C 104.011719 74.542969 102.976562 74.542969 102.109375 75 L 89.457031 81.65625 C 88.957031 81.925781 88.347656 81.886719 87.886719 81.550781 C 87.429688 81.21875 87.199219 80.648438 87.296875 80.089844 L 89.699219 65.929688 C 89.867188 64.964844 89.550781 63.972656 88.847656 63.289062 L 78.683594 53.308594 C 78.277344 52.910156 78.132812 52.320312 78.308594 51.78125 C 78.484375 51.242188 78.953125 50.847656 79.511719 50.769531 L 93.621094 48.714844 C 94.59375 48.574219 95.429688 47.960938 95.863281 47.078125 L 102.164062 34.257812 C 102.421875 33.753906 102.9375 33.433594 103.5 33.433594 C 104.0625 33.433594 104.578125 33.753906 104.835938 34.257812 " />
  </g>
</svg>