<?xml version="1.0" encoding="UTF-8"?>
<svg xmlns="http://www.w3.org/2000/svg" xmlns:xlink="http://www.w3.org/1999/xlink" width="208px"
  height="150px" viewBox="0 0 207 150" version="1.1">
  <g id="surface1">
    <path style=" stroke:none;fill-rule:nonzero;fill:#ffaaa6;fill-opacity:1;"
      d="M 161.378906 21.035156 C 138.703125 20.445312 105.226562 20.664062 103.5 20.675781 C 101.773438 20.6875 68.296875 20.433594 45.621094 21.035156 C 22.320312 21.644531 25.300781 50.585938 25.300781 50.585938 L 31.234375 105 L 172.683594 105 L 181.699219 50.585938 C 181.699219 50.585938 184.734375 21.644531 161.4375 21.035156 " />
    <path style=" stroke:none;fill-rule:nonzero;fill:#ffaaa6;fill-opacity:1;"
      d="M 57.5 129.230469 L 43.699219 129.230469 C 42.429688 129.230469 41.398438 128.199219 41.398438 126.921875 L 41.398438 115.382812 L 59.800781 115.382812 L 59.800781 126.832031 C 59.824219 127.457031 59.59375 128.070312 59.160156 128.523438 C 58.726562 128.976562 58.125 129.230469 57.5 129.230469 " />
    <path style=" stroke:none;fill-rule:nonzero;fill:#ffaaa6;fill-opacity:1;"
      d="M 163.300781 129.230469 L 149.5 129.230469 C 148.230469 129.230469 147.199219 128.199219 147.199219 126.921875 L 147.199219 115.382812 L 165.601562 115.382812 L 165.601562 126.832031 C 165.625 127.457031 165.394531 128.070312 164.960938 128.523438 C 164.527344 128.976562 163.925781 129.230469 163.300781 129.230469 " />
    <path
      style=" stroke:none;fill-rule:nonzero;fill:rgb(64.313725%,17.254902%,11.764706%);fill-opacity:1;"
      d="M 103.5 119.851562 C 85.101562 119.851562 66.699219 119.917969 48.378906 119.851562 C 34.09375 119.835938 21.449219 110.574219 17.089844 96.921875 C 12.960938 83.792969 9.039062 70.582031 5.152344 57.378906 C 4.128906 53.917969 5.371094 51.507812 8.75 50.386719 L 9.566406 50.125 C 11.386719 49.53125 13.214844 48.96875 15.054688 48.4375 C 16.441406 48.039062 17.828125 47.652344 19.214844 47.285156 C 20.578125 46.800781 22.082031 46.933594 23.339844 47.644531 C 24.601562 48.355469 25.492188 49.582031 25.78125 51 C 29.660156 63.691406 33.546875 76.382812 37.28125 89.078125 C 39.101562 95.179688 43.03125 96.898438 49.300781 96.898438 L 158.699219 96.898438 C 163.75 96.898438 168.1875 94.914062 169.648438 90.070312 C 173.480469 77.246094 177.359375 64.425781 181.285156 51.613281 C 182.4375 47.792969 184.734375 46.476562 188.566406 47.503906 C 191.933594 48.402344 195.292969 49.382812 198.59375 50.503906 C 201.894531 51.625 203.195312 54.21875 202.042969 57.761719 C 198.074219 70.789062 194.269531 83.875 190.140625 96.84375 C 186.300781 108.921875 177.800781 116.191406 165.644531 119.191406 C 163.109375 119.746094 160.515625 119.996094 157.917969 119.941406 C 139.769531 120 121.625 119.941406 103.476562 119.941406 Z M 103.5 119.851562 " />
    <path style=" stroke:none;fill-rule:nonzero;fill:rgb(100%,100%,100%);fill-opacity:1;"
      d="M 133.320312 61.949219 C 130.777344 61.949219 128.71875 59.882812 128.71875 57.335938 C 128.71875 54.785156 130.777344 52.71875 133.320312 52.71875 C 135.859375 52.71875 137.917969 54.785156 137.917969 57.335938 C 137.917969 59.882812 135.859375 61.949219 133.320312 61.949219 " />
    <path
      style="fill:none;stroke-width:2;stroke-linecap:butt;stroke-linejoin:miter;stroke:rgb(100%,100%,100%);stroke-opacity:1;stroke-miterlimit:10;"
      d="M 119.970826 49.689976 C 119.971323 51.89795 118.180333 53.691404 115.96953 53.688462 C 113.762145 53.688886 111.971234 51.89862 111.970737 49.690646 C 111.970208 47.479276 113.76123 45.689219 115.968615 45.688795 C 118.179386 45.68834 119.970329 47.482002 119.970826 49.689976 Z M 119.970826 49.689976 "
      transform="matrix(0.0108383,-1.153795,1.149949,0.0108746,74.9455,190.592308)" />
    <path style=" stroke:none;fill-rule:nonzero;fill:rgb(100%,100%,100%);fill-opacity:1;"
      d="M 73.519531 61.949219 C 70.980469 61.949219 68.917969 59.882812 68.917969 57.335938 C 68.917969 54.785156 70.980469 52.71875 73.519531 52.71875 C 76.058594 52.71875 78.121094 54.785156 78.121094 57.335938 C 78.121094 59.882812 76.058594 61.949219 73.519531 61.949219 " />
    <path
      style="fill:none;stroke-width:2;stroke-linecap:butt;stroke-linejoin:miter;stroke:rgb(100%,100%,100%);stroke-opacity:1;stroke-miterlimit:10;"
      d="M 67.968513 49.68959 C 67.969009 51.897564 66.17802 53.691018 63.970634 53.691441 C 61.759831 53.6885 59.968921 51.898234 59.968424 49.69026 C 59.971312 47.482254 61.762302 45.688801 63.969688 45.688377 C 66.180491 45.691318 67.971401 47.481584 67.968513 49.68959 Z M 67.968513 49.68959 "
      transform="matrix(0.0108383,-1.153795,1.149949,0.0108746,15.7205,130.592308)" />
  </g>
</svg>