<?xml version="1.0" encoding="UTF-8"?>
<svg xmlns="http://www.w3.org/2000/svg" xmlns:xlink="http://www.w3.org/1999/xlink" width="20px" height="px" viewBox="0 0 20 20" version="1.1">
<g id="surface1">
<path style=" stroke:none;fill-rule:nonzero;fill:rgb(0%,0%,0%);fill-opacity:1;" d="M 10 0.398438 C 4.707031 0.398438 0.398438 4.707031 0.398438 10 C 0.398438 15.292969 4.707031 19.601562 10 19.601562 C 15.292969 19.601562 19.601562 15.292969 19.601562 10 C 19.601562 4.707031 15.292969 0.398438 10 0.398438 Z M 10 18.800781 C 5.148438 18.800781 1.199219 14.851562 1.199219 10 C 1.199219 5.148438 5.148438 1.199219 10 1.199219 C 14.851562 1.199219 18.800781 5.148438 18.800781 10 C 18.800781 14.851562 14.851562 18.800781 10 18.800781 Z M 10 18.800781 "/>
<path style=" stroke:none;fill-rule:nonzero;fill:rgb(0%,0%,0%);fill-opacity:1;" d="M 10.398438 9.3125 L 10.398438 2.800781 L 9.601562 2.800781 L 9.601562 9.3125 C 9.363281 9.449219 9.199219 9.703125 9.199219 10 C 9.199219 10.070312 9.210938 10.140625 9.230469 10.203125 L 5.71875 13.71875 L 6.28125 14.28125 L 9.796875 10.769531 C 9.859375 10.789062 9.929688 10.800781 10 10.800781 C 10.441406 10.800781 10.800781 10.441406 10.800781 10 C 10.800781 9.703125 10.636719 9.449219 10.398438 9.3125 Z M 10.398438 9.3125 "/>
</g>
</svg>
