<?xml version="1.0" encoding="UTF-8"?>
<svg xmlns="http://www.w3.org/2000/svg" xmlns:xlink="http://www.w3.org/1999/xlink" width="208px"
  height="150px" viewBox="0 0 207 150" version="1.1">
  <g id="surface1">
    <path
      style=" stroke:none;fill-rule:nonzero;fill:rgb(64.313725%,17.254902%,11.764706%);fill-opacity:1;"
      d="M 146.050781 34.617188 L 75.324219 107.574219 L 101.695312 133.960938 C 103.773438 136.050781 107.148438 136.050781 109.226562 133.960938 L 167.648438 74.894531 C 168.554688 73.976562 169.058594 72.730469 169.050781 71.433594 L 169.050781 37.050781 C 169.050781 35.707031 167.964844 34.617188 166.625 34.617188 Z M 146.050781 34.617188 " />
    <path style=" stroke:none;fill-rule:nonzero;fill:#ffaaa6;fill-opacity:1;"
      d="M 104.007812 15.277344 L 39.101562 80.398438 C 38.179688 81.316406 37.660156 82.5625 37.660156 83.863281 C 37.660156 85.160156 38.179688 86.410156 39.101562 87.324219 L 79.742188 128.078125 C 80.652344 129 81.894531 129.523438 83.191406 129.523438 C 84.488281 129.523438 85.730469 129 86.640625 128.078125 L 151.558594 62.941406 C 152.472656 62.023438 152.988281 60.777344 152.984375 59.480469 L 152.984375 16.28125 C 152.984375 15.628906 152.722656 15.003906 152.261719 14.546875 C 151.800781 14.089844 151.171875 13.835938 150.523438 13.847656 L 107.445312 13.847656 C 106.152344 13.84375 104.910156 14.359375 103.996094 15.277344 " />
    <path style=" stroke:none;fill-rule:nonzero;fill:rgb(100%,100%,100%);fill-opacity:1;"
      d="M 128.152344 33.46875 C 131.328125 33.5 133.875 36.105469 133.847656 39.292969 C 133.816406 42.476562 131.21875 45.035156 128.042969 45.007812 C 124.867188 44.976562 122.316406 42.367188 122.347656 39.183594 C 122.375 35.996094 124.976562 33.4375 128.152344 33.46875 Z M 128.152344 33.46875 " />
  </g>
</svg>