<svg width="168" height="106" viewBox="0 0 168 106" fill="none" xmlns="http://www.w3.org/2000/svg">
<g clip-path="url(#clip0)">
<path opacity="0.1" d="M94.959 1.3475C95.1886 1.21474 95.4993 1.3475 95.6569 1.55351C95.7971 1.78001 95.8796 2.03724 95.8973 2.30279C95.9845 2.88267 96.0503 3.54801 95.6569 3.9814C95.9931 3.0129 96.5953 2.15796 97.3949 1.51397C98.1946 0.869972 99.1595 0.462796 100.18 0.338806" stroke="#6C63FF" stroke-width="3" stroke-miterlimit="10"/>
<path d="M83.7521 9.91756C83.097 10.4639 82.6348 11.1643 81.9154 11.6572C81.049 12.2524 79.9118 12.4782 78.8541 12.7972C77.7965 13.1161 76.7112 13.6166 76.2857 14.4849C75.9245 15.2281 76.1327 16.0903 75.8265 16.8502C75.4975 17.6575 74.6434 18.2237 73.9898 18.8753C72.6979 20.1602 72.124 21.9273 72.4592 23.5754C72.6903 24.7153 73.3224 25.7683 73.6974 26.8807C74.1566 28.2419 74.2209 29.6688 74.2852 31.0803C74.4046 33.731 74.5224 36.4076 73.924 39.0156C73.7709 39.6703 73.3576 49.6245 72.5571 49.6046C74.6816 49.423 76.8184 49.4032 78.9536 49.3818L110.944 49.0766C109.47 47.1538 108.528 35.7911 108.216 33.525C107.677 29.6184 108.981 25.7072 109.134 21.7747C109.156 21.2681 109.156 20.7477 108.946 20.2716C108.726 19.7726 108.285 19.3468 108.138 18.8295C107.927 18.0894 108.351 17.3309 108.365 16.571C108.392 15.045 106.834 13.8745 105.599 12.7437C104.408 11.6557 103.418 10.4196 102.189 9.35905C100.959 8.29847 99.415 7.39964 97.6579 7.23636C96.2145 7.1036 94.7803 7.47747 93.3981 7.84676C91.7496 8.28626 90.1838 8.84173 88.4343 8.81426C86.5042 8.78068 85.3149 8.94092 83.7521 9.91756Z" fill="#3A3A38"/>
<g opacity="0.1">
<path opacity="0.1" d="M105.787 15.9285C105.832 16.0955 105.897 16.2564 105.98 16.4077C105.96 16.0643 105.876 15.7276 105.734 15.4142C105.727 15.5873 105.745 15.7605 105.787 15.9285Z" fill="black"/>
<path opacity="0.1" d="M74.7635 40.4317L74.5859 40.447C74.6455 40.4482 74.705 40.4431 74.7635 40.4317Z" fill="black"/>
</g>
<path d="M107.983 95.4231C107.788 95.574 107.555 95.6684 107.31 95.6963C103.396 96.4975 99.4469 97.1811 95.4565 97.3978C91.9361 97.5901 88.405 97.4176 84.883 97.2452C81.361 97.0728 77.8421 96.8988 74.4043 96.1892C75.8287 93.3297 76.7256 90.2381 77.0523 87.0621C77.1969 85.6681 77.2322 84.265 77.1579 82.8656C77.1466 82.6972 77.1261 82.5296 77.0967 82.3635C76.9329 81.3594 76.5288 79.9051 76.8962 79.1787C77.3676 78.2448 79.1783 78.2143 80.063 78.0403C81.5661 77.7458 83.0768 77.5001 84.5937 77.2941C90.6136 76.4777 96.6948 76.2915 102.761 76.1099C103.575 76.0855 104.545 76.1404 104.969 76.8348C105.207 77.2239 105.194 77.7092 105.182 78.1654C105.155 79.1533 105.164 80.1411 105.211 81.129C105.424 85.5092 106.364 89.8238 107.994 93.8971C108.196 94.3961 108.381 95.0493 107.983 95.4231Z" fill="#FBBEBE"/>
<path d="M84.1657 41.0803C83.5259 41.8662 82.6243 42.3942 81.7167 42.8581C80.6324 43.4165 79.5156 43.9098 78.3722 44.3353C78.1411 44.6847 78.3248 45.1486 78.5253 45.521C80.3207 48.9972 82.7238 52.4521 86.3483 53.9461C88.2081 54.7091 90.2484 54.8999 92.2535 55.0784C92.878 55.1333 93.5147 55.1883 94.1239 55.0387C94.7331 54.8892 95.2995 54.5275 95.8076 54.1445C99.1285 51.6391 101.315 47.9214 101.887 43.8088C101.936 43.4441 101.936 42.9969 101.622 42.8016C101.431 42.6841 101.188 42.707 100.963 42.7085C99.4949 42.7238 98.1939 41.6403 97.5158 40.3447C96.8377 39.0491 96.6571 37.5552 96.4903 36.1009C96.4903 36.0688 87.8606 35.8872 87.0815 35.8811C85.8662 35.8705 85.4652 36.0124 85.3473 37.2546C85.2233 38.6249 85.0703 39.9632 84.1657 41.0803Z" fill="#FBBEBE"/>
<path opacity="0.1" d="M84.1657 41.0803C83.5259 41.8662 82.6243 42.3942 81.7167 42.8581C80.6324 43.4165 79.5156 43.9098 78.3722 44.3353C78.1411 44.6847 78.3248 45.1486 78.5253 45.521C80.3207 48.9972 82.7238 52.4521 86.3483 53.9461C88.2081 54.7091 90.2484 54.8999 92.2535 55.0784C92.878 55.1333 93.5147 55.1883 94.1239 55.0387C94.7331 54.8892 95.2995 54.5275 95.8076 54.1445C99.1285 51.6391 101.315 47.9214 101.887 43.8088C101.936 43.4441 101.936 42.9969 101.622 42.8016C101.431 42.6841 101.188 42.707 100.963 42.7085C99.4949 42.7238 98.1939 41.6403 97.5158 40.3447C96.8377 39.0491 96.6571 37.5552 96.4903 36.1009C96.4903 36.0688 87.8606 35.8872 87.0815 35.8811C85.8662 35.8705 85.4652 36.0124 85.3473 37.2546C85.2233 38.6249 85.0703 39.9632 84.1657 41.0803Z" fill="black"/>
<path d="M91.0241 39.4552C97.5332 39.4552 102.81 34.1944 102.81 27.7048C102.81 21.2153 97.5332 15.9545 91.0241 15.9545C84.515 15.9545 79.2383 21.2153 79.2383 27.7048C79.2383 34.1944 84.515 39.4552 91.0241 39.4552Z" fill="#FBBEBE"/>
<path d="M99.6687 41.6357C99.7988 43.2838 82.0328 44.8266 81.3624 42.794C80.9644 43.2625 80.2343 43.3006 79.6527 43.0992C79.071 42.8978 78.5812 42.5101 78.0302 42.2248C77.1118 41.7471 76.0771 41.5701 75.0593 41.3977C73.4016 41.1184 71.4761 40.9139 70.2485 42.06C69.8245 42.4552 69.5352 42.9756 69.1097 43.3723C68.3658 44.0621 67.3143 44.2773 66.3546 44.5932C64.9694 45.051 63.6928 45.7834 62.3842 46.4244C59.3284 47.9244 56.0704 48.974 52.7121 49.5405C51.9973 49.661 51.2779 49.7587 50.5692 49.9281C49.5743 50.1662 48.5794 50.5736 47.9014 51.3381C48.6942 52.3484 49.833 52.8993 51.056 53.2975L62.8571 57.1431C64.6326 57.7215 66.4357 58.312 67.9893 59.3482C70.5776 61.0695 72.2613 63.8988 73.1827 66.8608C74.1042 69.8228 74.3414 72.948 74.571 76.0413C74.6705 77.3857 74.7608 78.7881 74.2312 80.0333C76.98 80.3563 79.7599 80.3106 82.4966 79.8975C85.1308 79.4977 87.7359 78.7561 90.4007 78.7805C93.3089 78.8095 96.1268 79.7495 98.9937 80.2576C101.861 80.7658 105.024 80.7811 107.44 79.1589C106.925 78.4676 106.847 77.4803 106.827 76.6227L106.766 72.5589C106.739 72.0684 106.772 71.5765 106.864 71.0939C107.069 70.2241 107.646 69.4947 108.015 68.6813C108.727 67.111 108.627 65.3164 108.667 63.5936C108.707 61.8707 108.949 60.0196 110.117 58.7592C110.882 57.9366 111.953 57.4697 113.04 57.1813C114.898 56.6868 116.842 56.6548 118.762 56.519C125.019 56.0717 131.141 54.4821 136.823 51.8295C136.483 51.1138 135.694 50.7079 134.973 50.3752C133.267 49.5893 131.461 48.7836 129.591 48.9591C128.686 49.0445 127.791 49.3589 126.889 49.2445C126.035 49.1346 125.279 48.6524 124.45 48.4219C123.82 48.248 123.162 48.222 122.516 48.1244C121.026 47.897 119.627 47.285 118.247 46.6792L114.764 45.1532C113.845 44.7488 112.889 44.3169 112.258 43.5356C112.053 43.2808 111.888 42.9939 111.664 42.7543C111.28 42.3438 110.746 42.1012 110.212 41.9318C109.54 41.6989 108.825 41.6207 108.119 41.7029C107.635 41.7988 107.157 41.9236 106.688 42.0768C104.386 42.6963 102.011 42.0523 99.6687 41.6357Z" fill="#CC0000"/>
<path d="M113.149 103.096C106.875 104.6 100.485 105.57 94.0466 105.995H94.0358H77.8709H77.8617C74.9689 105.799 72.1178 105.499 69.3086 105.095C70.1376 102.635 71.2801 100.291 72.7081 98.1212C72.9366 97.8142 73.1153 97.4733 73.2377 97.111C73.305 96.7738 73.3393 96.4308 73.3403 96.087C73.4147 95.0339 73.8244 94.0321 74.5097 93.2273C74.828 93.4002 75.1495 93.5665 75.474 93.7263C79.1503 95.5469 83.1539 96.6182 87.2506 96.8775C89.4055 96.9876 91.5656 96.9443 93.7144 96.7478C98.5604 96.3586 103.599 95.4613 107.502 92.6123C107.666 92.4933 107.828 92.3696 107.989 92.243C109.885 93.9216 110.983 96.4945 111.768 98.8995C112.235 100.306 112.667 101.71 113.149 103.096Z" fill="#3A3A38"/>
<path opacity="0.1" d="M90.9602 93.3876C90.8839 93.634 90.8652 93.8945 90.9055 94.1493C90.9458 94.404 91.0441 94.6461 91.1928 94.8571C91.2922 94.6365 91.3216 94.3909 91.2773 94.1532C91.233 93.9154 91.117 93.6968 90.9449 93.5264L90.9602 93.3876Z" fill="black"/>
<path d="M84.2639 44.0575C84.8578 43.734 85.4991 43.4471 86.1757 43.438C87.192 43.4288 88.1012 44.0484 88.8543 44.732C89.5504 45.3589 90.1803 46.0554 90.7339 46.8105C91.0094 47.1843 91.2727 47.5948 91.314 48.0572C91.3553 48.5196 91.1012 49.04 90.6482 49.1498C90.362 49.198 90.0681 49.1387 89.8232 48.9835C88.7762 48.4097 88.0002 47.0958 86.8124 47.224C85.9981 47.311 85.4471 48.0664 85.0017 48.75C84.6053 49.3604 84.2042 49.9876 84.0267 50.6926C83.8491 51.3977 83.9348 52.2187 84.4277 52.7497C84.8104 53.1663 85.369 53.3601 85.891 53.5768C87.0454 54.0532 88.1023 54.737 89.0089 55.5942C89.4482 56.0123 89.866 56.5098 89.9272 57.1202C89.9885 57.7306 89.5247 58.4021 88.9186 58.3593C88.6453 58.3167 88.3875 58.2048 88.1701 58.0343C87.0742 57.3125 85.9553 56.5556 84.6695 56.2901C83.3609 56.02 82.0093 56.2901 80.6899 56.4915C79.243 56.7072 77.7889 56.8608 76.3276 56.9524C75.8939 57.0019 75.4548 56.9735 75.0312 56.8684C73.5863 56.4228 73.1654 54.5901 73.3337 53.2655C73.5128 51.8494 74.5582 51.5274 75.6511 50.8239C78.7246 48.8187 81.0052 45.8277 84.2639 44.0575Z" fill="#FBBEBE"/>
<path d="M95.5861 44.0575C94.9907 43.734 94.3509 43.4471 93.6728 43.438C92.6565 43.4288 91.7473 44.0484 90.9942 44.732C90.2986 45.359 89.6693 46.0555 89.1162 46.8105C88.8422 47.1843 88.5789 47.5948 88.5376 48.0572C88.4963 48.5196 88.7488 49.04 89.2019 49.1498C89.4885 49.1979 89.7829 49.1387 90.0284 48.9835C91.0754 48.4097 91.8514 47.0958 93.0376 47.224C93.8535 47.311 94.4045 48.0664 94.8484 48.75C95.2448 49.3604 95.6473 49.9876 95.8234 50.6926C95.9994 51.3977 95.9152 52.2187 95.4223 52.7497C95.0412 53.1663 94.481 53.3601 93.9591 53.5768C92.8042 54.0534 91.7469 54.7372 90.8397 55.5942C90.4004 56.0123 89.984 56.5098 89.9213 57.1202C89.8585 57.7306 90.3238 58.4021 90.93 58.3593C91.2033 58.317 91.4611 58.205 91.6784 58.0343C92.7744 57.3125 93.8932 56.5556 95.179 56.2901C96.4877 56.02 97.8392 56.2901 99.1586 56.4915C100.602 56.7173 102.058 56.8745 103.516 56.9615C103.951 57.0111 104.39 56.9827 104.814 56.8776C106.258 56.432 106.679 54.5992 106.512 53.2747C106.331 51.8585 105.287 51.5365 104.193 50.833C101.125 48.8187 98.8464 45.8277 95.5861 44.0575Z" fill="#FBBEBE"/>
<path d="M82.8759 23.4595C83.5616 22.3791 84.3759 21.2071 85.4886 21.0819C87.0422 20.9064 88.256 22.843 89.802 23.0932C91.7918 23.4167 93.7479 20.8775 95.6183 21.8053C96.5367 22.2631 97.2224 23.5327 98.2204 23.5083C98.9107 23.493 99.4725 22.8475 99.9301 22.2142C100.702 21.1465 101.386 20.0175 101.974 18.8387C100.074 16.6672 97.3112 16.1712 94.7321 15.776L90.3958 15.1122C89.352 14.9519 88.2897 14.7932 87.2519 15.0145C86.3137 15.2144 85.4381 15.718 84.5886 16.2475C83.5754 16.8823 81.1922 17.9017 80.5707 19.0829C80.1376 19.9023 80.733 20.2838 81.2917 21.1094C81.8172 21.8928 82.3453 22.6761 82.8759 23.4595Z" fill="#3A3A38"/>
<path opacity="0.1" d="M76.3075 49.9815C74.4266 50.356 72.5058 50.4923 70.5906 50.3874C69.8391 50.3478 69.0845 50.2699 68.336 50.3401C67.4329 50.4256 66.565 50.7231 65.6849 50.9398C61.1252 52.0584 56.3603 50.9658 51.7057 50.3523C50.8838 50.244 50.0435 50.1509 49.2292 50.3096C48.4837 50.4546 47.795 50.8025 47.1353 51.1764C46.0664 51.7824 45.0433 52.4653 44.074 53.2197C43.0592 54.0102 42.0352 55.0173 41.9648 56.2977C41.9036 57.3995 42.5771 58.4143 43.3929 59.1635C45.597 61.1977 48.8695 61.8096 51.8205 61.2587C52.9425 61.0497 54.0369 60.6895 55.1711 60.5644C56.3328 60.4362 57.5068 60.5644 58.6747 60.5095C61.0471 60.4042 63.3186 59.5817 65.6222 59.0094C69.2195 58.1164 72.9406 57.8256 76.6335 58.1487C76.6014 58.1626 76.5666 58.1692 76.5316 58.1681C76.4966 58.167 76.4623 58.1581 76.4311 58.1422C76.4 58.1263 76.3727 58.1038 76.3513 58.0761C76.33 58.0485 76.315 58.0165 76.3075 57.9824C76.0366 57.2377 76.0228 56.4274 76.0274 55.6354C76.0396 53.7141 76.1299 51.8951 76.3075 49.9815Z" fill="black"/>
<path d="M76.0018 50.1342C74.1209 50.5086 72.2001 50.645 70.2849 50.5401C69.5334 50.5004 68.7788 50.4226 68.0303 50.4928C67.1272 50.5782 66.2594 50.8758 65.3792 51.0925C60.8195 52.2111 56.0547 51.1184 51.4 50.505C50.5781 50.3966 49.7378 50.3035 48.9235 50.4622C48.1781 50.6072 47.4893 50.9551 46.8296 51.329C45.7607 51.935 44.7376 52.618 43.7683 53.3724C42.7535 54.1628 41.7296 55.17 41.6591 56.4503C41.5979 57.5521 42.2714 58.5669 43.0872 59.3162C45.2913 61.3504 48.5638 61.9623 51.5148 61.4114C52.6368 61.2023 53.7312 60.8422 54.8654 60.7171C56.0271 60.5889 57.2011 60.7171 58.369 60.6621C60.7415 60.5568 63.0129 59.7343 65.3165 59.162C68.9138 58.2691 72.6349 57.9782 76.3278 58.3014C76.2957 58.3152 76.2609 58.3219 76.2259 58.3207C76.1909 58.3196 76.1566 58.3108 76.1254 58.2949C76.0943 58.279 76.067 58.2564 76.0457 58.2288C76.0243 58.2011 76.0093 58.1691 76.0018 58.135C75.7309 57.3903 75.7171 56.58 75.7217 55.788C75.7339 53.8668 75.8242 52.0478 76.0018 50.1342Z" fill="#CC0000"/>
<path opacity="0.1" d="M103.897 49.1652C106.23 49.6947 111.844 49.9282 114.235 49.8488C115.327 49.8152 116.415 49.7176 117.506 49.7206C119.377 49.7206 121.244 50.0258 123.11 49.9022C125.521 49.7374 127.888 48.8539 130.293 49.0812C131.475 49.1942 132.612 49.5696 133.739 49.945C134.865 50.3204 136.093 50.7446 136.886 51.6571C137.62 52.5026 137.888 53.641 138.131 54.7336C138.268 55.344 138.404 55.9742 138.284 56.5862C138.056 57.7475 136.983 58.5334 135.953 59.1193C134.729 59.8152 133.385 60.4134 131.974 60.3814C131.136 60.363 130.322 60.1219 129.525 59.8717C127.239 59.156 124.904 58.3457 122.516 58.5242C120.846 58.6524 119.178 59.2658 117.535 58.9347C116.57 58.7394 115.699 58.2297 114.78 57.8909C112.542 57.0745 106.862 57.2912 104.49 57.517C104.628 56.1879 104.611 54.848 104.748 53.5174C104.856 52.4995 104.958 51.445 104.631 50.4745C104.426 49.8931 104.357 49.5772 103.897 49.1652Z" fill="black"/>
<path d="M104.051 49.4703C106.383 49.9998 111.998 50.2333 114.389 50.1539C115.48 50.1204 116.568 50.0227 117.66 50.0257C119.53 50.0257 121.397 50.3309 123.263 50.2073C125.674 50.0425 128.042 49.159 130.446 49.3863C131.628 49.4993 132.765 49.8747 133.892 50.2501C135.018 50.6255 136.246 51.0497 137.039 51.9623C137.773 52.8077 138.041 53.9461 138.285 55.0387C138.421 55.6491 138.557 56.2793 138.438 56.8913C138.21 58.0526 137.137 58.8385 136.107 59.4245C134.882 60.1203 133.538 60.7185 132.127 60.6865C131.29 60.6682 130.475 60.4271 129.678 60.1768C127.393 59.4611 125.057 58.6508 122.669 58.8293C120.999 58.9575 119.331 59.571 117.689 59.2398C116.723 59.0445 115.852 58.5348 114.934 58.196C112.696 57.3796 107.016 57.5963 104.643 57.8221C104.781 56.493 104.764 55.1532 104.902 53.8225C105.009 52.8046 105.112 51.7501 104.784 50.7796C104.579 50.1982 104.51 49.8823 104.051 49.4703Z" fill="#CC0000"/>
<path d="M79.7301 26.2322C79.3719 26.1391 79.2342 25.6874 78.9112 25.5058C78.5882 25.3242 78.1842 25.4676 77.9515 25.7377C77.7354 26.0236 77.6183 26.3717 77.6178 26.7296C77.5891 27.5015 77.8001 28.2635 78.222 28.9113C78.6439 29.5592 79.2561 30.0614 79.975 30.3493C79.6549 28.9602 79.5313 27.5333 79.6076 26.1101L79.7301 26.2322Z" fill="#FBBEBE"/>
<path d="M102.318 26.2322C102.676 26.1391 102.812 25.6874 103.135 25.5058C103.458 25.3242 103.862 25.4676 104.095 25.7377C104.312 26.0232 104.429 26.3716 104.428 26.7296C104.457 27.5015 104.246 28.2635 103.824 28.9113C103.402 29.5592 102.79 30.0614 102.071 30.3493C102.391 28.9602 102.515 27.5333 102.439 26.1101L102.318 26.2322Z" fill="#FBBEBE"/>
<g opacity="0.1">
<path opacity="0.1" d="M87.6471 60.0715C87.939 61.1352 88.0806 62.2344 88.068 63.3371C88.068 65.2554 87.69 66.9294 87.1267 67.8282C87.0792 68.2555 87.0257 68.6797 86.9736 69.0963C87.768 68.4859 88.3512 66.4807 88.3512 64.1002C88.3451 62.4734 88.0726 61.0222 87.6471 60.0715Z" fill="black"/>
</g>
<g opacity="0.1">
<path opacity="0.1" d="M91.959 60.0715C91.6666 61.1352 91.5244 62.2343 91.5365 63.3371C91.5365 65.2554 91.9161 66.9294 92.4794 67.8282C92.5268 68.2555 92.5789 68.6797 92.6324 69.0963C91.8381 68.4859 91.2549 66.4807 91.2549 64.1002C91.2534 62.4734 91.5258 61.0222 91.959 60.0715Z" fill="black"/>
</g>
<path opacity="0.1" d="M99.9175 21.4512C99.4583 22.0845 98.8981 22.73 98.2078 22.7453C97.2083 22.7697 96.5241 21.5031 95.6057 21.0423C93.7429 20.1145 91.7914 22.6537 89.7893 22.3302C88.2434 22.08 87.0342 20.1435 85.476 20.3189C84.3632 20.4441 83.549 21.6161 82.8632 22.6965C82.3326 21.9141 81.8025 21.1308 81.2729 20.3464C80.9668 19.8886 80.6346 19.5605 80.4862 19.2217C80.1892 19.9481 80.7464 20.3327 81.2729 21.1094C81.7994 21.8862 82.3321 22.6766 82.8632 23.4595C83.549 22.3791 84.3632 21.2071 85.476 21.0819C87.0296 20.9065 88.2434 22.843 89.7893 23.0932C91.7791 23.4168 93.7353 20.8775 95.6057 21.8053C96.5241 22.2631 97.2098 23.5327 98.2078 23.5083C98.8981 23.4931 99.4598 22.8475 99.9175 22.2143C100.69 21.1465 101.373 20.0176 101.961 18.8387C101.878 18.7441 101.792 18.6525 101.705 18.564C101.177 19.5667 100.58 20.5314 99.9175 21.4512Z" fill="black"/>
</g>
<defs>
<clipPath id="clip0">
<rect width="168" height="106" fill="white"/>
</clipPath>
</defs>
</svg>
