<?xml version="1.0" encoding="UTF-8"?>
<svg xmlns="http://www.w3.org/2000/svg" xmlns:xlink="http://www.w3.org/1999/xlink" width="25px" height="25px" viewBox="0 0 25 25" version="1.1">
<g id="surface1">
<path style=" stroke:none;fill-rule:nonzero;fill:rgb(0%,0%,0%);fill-opacity:1;" d="M 13.320312 5.6875 C 13.179688 5.828125 13.042969 5.972656 12.871094 6.136719 L 12.402344 6.605469 L 11.914062 6.152344 C 11.765625 6.019531 11.621094 5.882812 11.480469 5.75 C 9.96875 4.339844 8.832031 3.277344 6.488281 3.246094 C 6.398438 3.242188 6.296875 3.246094 6.203125 3.25 C 4.886719 3.296875 3.679688 3.753906 2.796875 4.535156 C 1.929688 5.308594 1.371094 6.40625 1.351562 7.738281 C 1.351562 7.820312 1.351562 7.910156 1.359375 8.003906 C 1.5 11.734375 5.25 14.980469 8.359375 17.675781 C 8.960938 18.195312 9.535156 18.695312 10.085938 19.199219 L 12.378906 21.296875 L 15.257812 18.585938 C 15.722656 18.144531 16.246094 17.664062 16.804688 17.15625 C 17.765625 16.289062 18.824219 15.320312 19.8125 14.351562 C 20.523438 13.652344 21.195312 12.949219 21.765625 12.273438 C 22.328125 11.609375 22.789062 10.984375 23.085938 10.425781 C 23.570312 9.5 23.71875 8.585938 23.617188 7.726562 C 23.515625 6.875 23.164062 6.078125 22.636719 5.40625 C 22.101562 4.71875 21.386719 4.148438 20.570312 3.757812 C 19.632812 3.316406 18.554688 3.105469 17.457031 3.222656 C 15.554688 3.433594 14.546875 4.453125 13.320312 5.6875 Z M 12.363281 4.773438 C 13.769531 3.363281 14.929688 2.207031 17.300781 1.949219 C 18.667969 1.800781 20.007812 2.0625 21.171875 2.617188 C 22.179688 3.09375 23.054688 3.792969 23.71875 4.640625 C 24.382812 5.492188 24.828125 6.5 24.960938 7.578125 C 25.09375 8.671875 24.902344 9.839844 24.289062 10.996094 C 23.941406 11.65625 23.429688 12.359375 22.816406 13.082031 C 22.21875 13.789062 21.519531 14.515625 20.78125 15.238281 C 19.773438 16.230469 18.707031 17.207031 17.738281 18.085938 C 17.179688 18.59375 16.648438 19.078125 16.207031 19.492188 L 12.855469 22.652344 L 12.386719 23.09375 L 11.914062 22.660156 L 9.144531 20.125 C 8.636719 19.664062 8.050781 19.15625 7.445312 18.628906 C 4.144531 15.765625 0.164062 12.320312 0.00390625 8.050781 C 0 7.945312 0 7.835938 0 7.726562 C 0.0234375 6.011719 0.742188 4.59375 1.875 3.59375 C 2.992188 2.601562 4.511719 2.023438 6.148438 1.96875 C 6.257812 1.960938 6.375 1.957031 6.503906 1.960938 C 9.359375 1.996094 10.664062 3.1875 12.363281 4.773438 Z M 12.363281 4.773438 "/>
</g>
</svg>
