<?xml version="1.0" encoding="UTF-8"?>
<svg xmlns="http://www.w3.org/2000/svg" xmlns:xlink="http://www.w3.org/1999/xlink" width="25px" height="25px" viewBox="0 0 25 25" version="1.1">
<g id="surface1">
<path style=" stroke:none;fill-rule:nonzero;fill:rgb(0%,0%,0%);fill-opacity:1;" d="M 0.789062 3.472656 C 0.367188 3.472656 0 3.117188 0 2.6875 C 0 2.269531 0.367188 1.914062 0.789062 1.914062 L 2.867188 1.914062 C 2.890625 1.914062 2.929688 1.914062 2.949219 1.914062 C 3.679688 1.933594 4.332031 2.074219 4.882812 2.40625 C 5.492188 2.78125 5.9375 3.355469 6.179688 4.199219 C 6.179688 4.21875 6.179688 4.238281 6.207031 4.257812 L 6.40625 5.046875 L 24.210938 5.046875 C 24.652344 5.046875 25 5.398438 25 5.816406 C 25 5.894531 24.980469 5.972656 24.960938 6.050781 L 22.886719 14.144531 C 22.804688 14.496094 22.476562 14.734375 22.109375 14.734375 L 9.09375 14.734375 C 9.378906 15.757812 9.664062 16.308594 10.046875 16.566406 C 10.515625 16.859375 11.328125 16.878906 12.695312 16.859375 L 21.910156 16.859375 C 22.351562 16.859375 22.699219 17.21875 22.699219 17.632812 C 22.699219 18.0625 22.335938 18.398438 21.910156 18.398438 L 12.714844 18.398438 C 11.023438 18.417969 9.992188 18.378906 9.15625 17.847656 C 8.300781 17.296875 7.851562 16.347656 7.402344 14.640625 L 4.679688 4.652344 C 4.679688 4.632812 4.679688 4.632812 4.65625 4.613281 C 4.535156 4.179688 4.332031 3.886719 4.046875 3.726562 C 3.765625 3.550781 3.378906 3.472656 2.929688 3.472656 C 2.910156 3.472656 2.890625 3.472656 2.867188 3.472656 Z M 19.527344 19.300781 C 20.605469 19.300781 21.480469 20.152344 21.480469 21.195312 C 21.480469 22.234375 20.605469 23.085938 19.527344 23.085938 C 18.453125 23.085938 17.574219 22.234375 17.574219 21.195312 C 17.574219 20.152344 18.453125 19.300781 19.527344 19.300781 Z M 10.960938 19.300781 C 12.039062 19.300781 12.914062 20.152344 12.914062 21.195312 C 12.914062 22.234375 12.039062 23.085938 10.960938 23.085938 C 9.886719 23.085938 9.015625 22.234375 9.015625 21.195312 C 9.015625 20.152344 9.886719 19.300781 10.960938 19.300781 Z M 6.855469 6.582031 L 8.667969 13.179688 L 21.5 13.179688 L 23.1875 6.582031 Z M 6.855469 6.582031 "/>
</g>
</svg>
