<?xml version="1.0" encoding="UTF-8"?>
<svg xmlns="http://www.w3.org/2000/svg" xmlns:xlink="http://www.w3.org/1999/xlink" width="25px" height="25px" viewBox="0 0 25 25" version="1.1">
<g id="surface1">
<path style=" stroke:none;fill-rule:nonzero;fill:rgb(0%,0%,0%);fill-opacity:1;" d="M 10.070312 0 C 12.847656 0 15.359375 1.097656 17.183594 2.875 C 19.003906 4.652344 20.132812 7.109375 20.132812 9.820312 C 20.132812 12.421875 19.09375 14.789062 17.398438 16.546875 C 17.429688 16.570312 17.460938 16.597656 17.492188 16.621094 L 24.734375 23.679688 C 25.039062 23.976562 25.039062 24.457031 24.734375 24.75 C 24.4375 25.046875 23.945312 25.046875 23.640625 24.757812 L 16.398438 17.695312 C 16.347656 17.652344 16.308594 17.601562 16.28125 17.546875 C 14.566406 18.863281 12.414062 19.644531 10.070312 19.644531 C 7.285156 19.644531 4.769531 18.539062 2.949219 16.765625 C 1.128906 14.992188 0 12.535156 0 9.820312 C 0 7.109375 1.128906 4.652344 2.949219 2.875 C 4.769531 1.097656 7.285156 0 10.070312 0 Z M 16.058594 3.976562 C 14.527344 2.480469 12.40625 1.554688 10.070312 1.554688 C 7.726562 1.554688 5.605469 2.480469 4.070312 3.976562 C 2.539062 5.46875 1.59375 7.539062 1.59375 9.820312 C 1.59375 12.105469 2.539062 14.171875 4.070312 15.667969 C 5.605469 17.164062 7.726562 18.089844 10.070312 18.089844 C 12.40625 18.089844 14.527344 17.164062 16.058594 15.667969 C 17.59375 14.171875 18.539062 12.105469 18.539062 9.820312 C 18.539062 7.539062 17.59375 5.46875 16.058594 3.976562 Z M 16.058594 3.976562 "/>
</g>
</svg>
